<svg width="20" height="20" viewBox="0 0 20 20" fill="none" xmlns="http://www.w3.org/2000/svg">
<path d="M15.7325 7.2657L15.8153 7.26683C16.1229 7.29226 16.3587 7.54765 16.375 7.85506L16.3671 8.02647L16.105 11.2358L15.8301 14.3678C15.7719 14.9931 15.7198 15.5204 15.6749 15.9356C15.5187 17.3823 14.5796 18.277 13.1638 18.3034C10.9578 18.3442 8.83731 18.3438 6.7781 18.2992C5.40331 18.2704 4.47805 17.3661 4.32462 15.9414L4.21858 14.8918L4.03328 12.8559L3.84347 10.6217L3.62643 7.93992C3.59946 7.59584 3.84959 7.29448 4.18512 7.26682C4.49269 7.24146 4.76525 7.45489 4.82932 7.75566L4.85426 8.00146L5.05805 10.5156L5.28057 13.1216C5.38038 14.2497 5.46695 15.1627 5.53622 15.804C5.62365 16.6159 6.05115 17.0337 6.80343 17.0495C8.84654 17.0937 10.9512 17.0941 13.1417 17.0536C13.9398 17.0387 14.374 16.625 14.4633 15.7978L14.5689 14.7538C14.5998 14.4321 14.6328 14.0769 14.6678 13.6911L14.8905 11.1282L15.1588 7.8396C15.1836 7.5242 15.4327 7.28244 15.7325 7.2657ZM3.10949 5.82434C2.77288 5.82434 2.5 5.54451 2.5 5.19932C2.5 4.88289 2.72929 4.62139 3.02679 4.58L3.10949 4.57429H5.76476C6.0803 4.57429 6.35654 4.36609 6.45535 4.0661L6.47953 3.97346L6.68587 2.92113C6.86759 2.22416 7.45767 1.72793 8.14916 1.67196L8.27993 1.66669H11.7199C12.4229 1.66669 13.0436 2.12192 13.2826 2.82534L13.3228 2.96009L13.5203 3.97321C13.5822 4.29062 13.8354 4.52768 14.1417 4.56816L14.2351 4.57429H16.8905C17.2271 4.57429 17.5 4.85413 17.5 5.19932C17.5 5.51574 17.2707 5.77725 16.9732 5.81863L16.8905 5.82434H3.10949ZM11.7199 2.91673H8.27993C8.10892 2.91673 7.95691 3.01937 7.89377 3.14837L7.87235 3.20505L7.67483 4.21867C7.65067 4.34239 7.61566 4.46152 7.57093 4.57512L12.429 4.57528C12.4011 4.50441 12.377 4.43138 12.3569 4.35642L12.325 4.21842L12.1364 3.24402C12.0923 3.07495 11.9561 2.95117 11.7918 2.92287L11.7199 2.91673Z" fill="currentColor"/>
</svg>
